<svg version="1.1" xmlns="http://www.w3.org/2000/svg" xmlns:xlink="http://www.w3.org/1999/xlink" x="0px" y="0px" viewBox="0 0 512 512" xml:space="preserve">
  <polygon fill="#F8F8F8" points="0,213.3 256,341.3 256,426.7 0,298.7" />
  <polygon fill="#F8F8F8" points="256,170.7 426.7,256 512,213.3 256,85.3" />
  <polygon fill="#F1F1F1" points="256,170.7 85.3,256 0,213.3 256,85.3" />
  <polygon fill="#F1F1F1" points="426.7,426.7 341.3,384 341.3,128 426.7,85.3" />
  <polygon fill="#FBFBFB" points="512,213.3 256,341.3 256,426.7 512,298.7" />
  <g>
    <polygon fill="#4F5D75" points="85.3,85.4 170.7,128 170.7,384 85.3,426.7" />
    <polygon fill="#81A684" points="85.3,85.3 170.7,128 256,85.3 341.3,128 426.7,85.3 256,0" />
    <polygon fill="#EF8354" points="426.7,426.7 341.3,384 256,426.7 170.7,384 85.3,426.7 256,512" />
  </g>
</svg>
